<svg width="269" height="46" viewBox="0 0 269 46" fill="none" xmlns="http://www.w3.org/2000/svg">
<path d="M0.443182 36V1.09091H13.5341C16.2159 1.09091 18.4659 1.59091 20.2841 2.59091C22.1136 3.59091 23.4943 4.96591 24.4261 6.71591C25.3693 8.45454 25.8409 10.4318 25.8409 12.6477C25.8409 14.8864 25.3693 16.875 24.4261 18.6136C23.483 20.3523 22.0909 21.7216 20.25 22.7216C18.4091 23.7102 16.142 24.2045 13.4489 24.2045H4.77273V19.0057H12.5966C14.1648 19.0057 15.4489 18.733 16.4489 18.1875C17.4489 17.642 18.1875 16.892 18.6648 15.9375C19.1534 14.983 19.3977 13.8864 19.3977 12.6477C19.3977 11.4091 19.1534 10.3182 18.6648 9.375C18.1875 8.43182 17.4432 7.69886 16.4318 7.17614C15.4318 6.64205 14.142 6.375 12.5625 6.375H6.76705V36H0.443182ZM37.2315 1.09091V36H31.0611V1.09091H37.2315ZM51.1108 36.5284C49.4517 36.5284 47.9574 36.233 46.6278 35.642C45.3097 35.0398 44.2642 34.1534 43.4915 32.983C42.7301 31.8125 42.3494 30.3693 42.3494 28.6534C42.3494 27.1761 42.6222 25.9545 43.1676 24.9886C43.7131 24.0227 44.4574 23.25 45.4006 22.6705C46.3438 22.0909 47.4063 21.6534 48.5881 21.358C49.7813 21.0511 51.0142 20.8295 52.2869 20.6932C53.821 20.5341 55.0653 20.392 56.0199 20.267C56.9744 20.1307 57.6676 19.9261 58.0994 19.6534C58.5426 19.3693 58.7642 18.9318 58.7642 18.3409V18.2386C58.7642 16.9545 58.3835 15.9602 57.6222 15.2557C56.8608 14.5511 55.7642 14.1989 54.3324 14.1989C52.821 14.1989 51.6222 14.5284 50.7358 15.1875C49.8608 15.8466 49.2699 16.625 48.9631 17.5227L43.2017 16.7045C43.6563 15.1136 44.4063 13.7841 45.4517 12.7159C46.4972 11.6364 47.7756 10.8295 49.2869 10.2955C50.7983 9.75 52.4688 9.47727 54.2983 9.47727C55.5597 9.47727 56.8153 9.625 58.0653 9.92045C59.3153 10.2159 60.4574 10.7045 61.4915 11.3864C62.5256 12.0568 63.3551 12.9716 63.9801 14.1307C64.6165 15.2898 64.9347 16.7386 64.9347 18.4773V36H59.0028V32.4034H58.7983C58.4233 33.1307 57.8949 33.8125 57.2131 34.4489C56.5426 35.0739 55.696 35.5795 54.6733 35.9659C53.6619 36.3409 52.4744 36.5284 51.1108 36.5284ZM52.7131 31.9943C53.9517 31.9943 55.0256 31.75 55.9347 31.2614C56.8438 30.7614 57.5426 30.1023 58.0312 29.2841C58.5312 28.4659 58.7812 27.5739 58.7812 26.608V23.5227C58.5881 23.6818 58.2585 23.8295 57.7926 23.9659C57.3381 24.1023 56.8267 24.2216 56.2585 24.3239C55.6903 24.4261 55.1278 24.517 54.571 24.5966C54.0142 24.6761 53.5313 24.7443 53.1222 24.8011C52.2017 24.9261 51.3778 25.1307 50.6506 25.4148C49.9233 25.6989 49.3494 26.0966 48.929 26.608C48.5085 27.108 48.2983 27.7557 48.2983 28.5511C48.2983 29.6875 48.7131 30.5455 49.5426 31.125C50.3722 31.7045 51.429 31.9943 52.7131 31.9943ZM82.5597 36.5114C79.946 36.5114 77.7017 35.9375 75.8267 34.7898C73.9631 33.642 72.5256 32.0568 71.5142 30.0341C70.5142 28 70.0142 25.6591 70.0142 23.0114C70.0142 20.3523 70.5256 18.0057 71.5483 15.9716C72.571 13.9261 74.0142 12.3352 75.8778 11.1989C77.7528 10.0511 79.9688 9.47727 82.5256 9.47727C84.6506 9.47727 86.5313 9.86932 88.1676 10.6534C89.8153 11.4261 91.1278 12.5227 92.1051 13.9432C93.0824 15.3523 93.6392 17 93.7756 18.8864H87.8778C87.6392 17.625 87.071 16.5739 86.1733 15.733C85.2869 14.8807 84.0994 14.4545 82.6108 14.4545C81.3494 14.4545 80.2415 14.7955 79.2869 15.4773C78.3324 16.1477 77.5881 17.1136 77.054 18.375C76.5313 19.6364 76.2699 21.1477 76.2699 22.9091C76.2699 24.6932 76.5313 26.2273 77.054 27.5114C77.5767 28.7841 78.3097 29.767 79.2528 30.4602C80.2074 31.142 81.3267 31.483 82.6108 31.483C83.5199 31.483 84.3324 31.3125 85.0483 30.9716C85.7756 30.6193 86.3835 30.1136 86.8722 29.4545C87.3608 28.7955 87.696 27.9943 87.8778 27.0511H93.7756C93.6278 28.9034 93.0824 30.5455 92.1392 31.9773C91.196 33.3977 89.9119 34.5114 88.2869 35.3182C86.6619 36.1136 84.7528 36.5114 82.5597 36.5114ZM110.433 36.5114C107.808 36.5114 105.541 35.9659 103.632 34.875C101.734 33.7727 100.274 32.2159 99.2514 30.2045C98.2287 28.1818 97.7173 25.8011 97.7173 23.0625C97.7173 20.3693 98.2287 18.0057 99.2514 15.9716C100.286 13.9261 101.729 12.3352 103.581 11.1989C105.433 10.0511 107.609 9.47727 110.109 9.47727C111.723 9.47727 113.246 9.73864 114.678 10.2614C116.121 10.7727 117.393 11.5682 118.496 12.6477C119.609 13.7273 120.484 15.1023 121.121 16.7727C121.757 18.4318 122.075 20.4091 122.075 22.7045V24.5966H100.615V20.4375H116.161C116.149 19.2557 115.893 18.2045 115.393 17.2841C114.893 16.3523 114.195 15.6193 113.297 15.0852C112.411 14.5511 111.376 14.2841 110.195 14.2841C108.933 14.2841 107.825 14.5909 106.871 15.2045C105.916 15.8068 105.172 16.6023 104.638 17.5909C104.115 18.5682 103.848 19.642 103.837 20.8125V24.4432C103.837 25.9659 104.115 27.2727 104.672 28.3636C105.229 29.4432 106.007 30.2727 107.007 30.8523C108.007 31.4205 109.178 31.7045 110.518 31.7045C111.416 31.7045 112.229 31.5795 112.956 31.3295C113.683 31.0682 114.314 30.6875 114.848 30.1875C115.382 29.6875 115.786 29.0682 116.058 28.3295L121.82 28.9773C121.456 30.5 120.763 31.8295 119.74 32.9659C118.729 34.0909 117.433 34.9659 115.854 35.5909C114.274 36.2045 112.467 36.5114 110.433 36.5114Z" fill="#CEDE4F"/>
<path d="M146.54 10.6875C146.381 9.19886 145.71 8.03977 144.528 7.21023C143.358 6.38068 141.835 5.96591 139.96 5.96591C138.642 5.96591 137.511 6.16477 136.568 6.5625C135.625 6.96023 134.903 7.5 134.403 8.18182C133.903 8.86364 133.648 9.64205 133.636 10.517C133.636 11.2443 133.801 11.875 134.131 12.4091C134.472 12.9432 134.932 13.3977 135.511 13.7727C136.091 14.1364 136.733 14.4432 137.438 14.6932C138.142 14.9432 138.852 15.1534 139.568 15.3239L142.841 16.142C144.159 16.4489 145.426 16.8636 146.642 17.3864C147.869 17.9091 148.966 18.5682 149.932 19.3636C150.909 20.1591 151.682 21.1193 152.25 22.2443C152.818 23.3693 153.102 24.6875 153.102 26.1989C153.102 28.2443 152.58 30.0455 151.534 31.6023C150.489 33.1477 148.977 34.358 147 35.233C145.034 36.0966 142.653 36.5284 139.858 36.5284C137.142 36.5284 134.784 36.108 132.784 35.267C130.795 34.4261 129.239 33.1989 128.114 31.5852C127 29.9716 126.398 28.0057 126.307 25.6875H132.528C132.619 26.9034 132.994 27.9148 133.653 28.7216C134.313 29.5284 135.17 30.1307 136.227 30.5284C137.295 30.9261 138.489 31.125 139.807 31.125C141.182 31.125 142.386 30.9205 143.42 30.5114C144.466 30.0909 145.284 29.5114 145.875 28.7727C146.466 28.0227 146.767 27.1477 146.778 26.1477C146.767 25.2386 146.5 24.4886 145.977 23.8977C145.455 23.2955 144.722 22.7955 143.778 22.3977C142.847 21.9886 141.756 21.625 140.506 21.3068L136.534 20.2841C133.659 19.5455 131.386 18.4261 129.716 16.9261C128.057 15.4148 127.227 13.4091 127.227 10.9091C127.227 8.85227 127.784 7.05114 128.898 5.50568C130.023 3.96023 131.551 2.76136 133.483 1.90909C135.415 1.04545 137.602 0.613635 140.045 0.613635C142.523 0.613635 144.693 1.04545 146.557 1.90909C148.432 2.76136 149.903 3.94886 150.972 5.47159C152.04 6.98295 152.591 8.72159 152.625 10.6875H146.54ZM158.467 45.8182V9.81818H164.536V14.1477H164.893C165.212 13.5114 165.661 12.8352 166.24 12.1193C166.82 11.392 167.604 10.7727 168.592 10.2614C169.581 9.73864 170.842 9.47727 172.376 9.47727C174.399 9.47727 176.223 9.99432 177.848 11.0284C179.484 12.0511 180.78 13.5682 181.734 15.5795C182.7 17.5795 183.183 20.0341 183.183 22.9432C183.183 25.8182 182.712 28.2614 181.768 30.2727C180.825 32.2841 179.541 33.8182 177.916 34.875C176.291 35.9318 174.45 36.4602 172.393 36.4602C170.893 36.4602 169.649 36.2102 168.661 35.7102C167.672 35.2102 166.876 34.608 166.274 33.9034C165.683 33.1875 165.223 32.5114 164.893 31.875H164.638V45.8182H158.467ZM164.518 22.9091C164.518 24.6023 164.757 26.0852 165.234 27.358C165.723 28.6307 166.422 29.625 167.331 30.3409C168.251 31.0455 169.365 31.3977 170.672 31.3977C172.036 31.3977 173.178 31.0341 174.098 30.3068C175.018 29.5682 175.712 28.5625 176.178 27.2898C176.655 26.0057 176.893 24.5455 176.893 22.9091C176.893 21.2841 176.661 19.8409 176.195 18.5795C175.729 17.3182 175.036 16.3295 174.115 15.6136C173.195 14.8977 172.047 14.5398 170.672 14.5398C169.354 14.5398 168.234 14.8864 167.314 15.5795C166.393 16.2727 165.695 17.2443 165.217 18.4943C164.751 19.7443 164.518 21.2159 164.518 22.9091ZM200.058 36.5114C197.433 36.5114 195.166 35.9659 193.257 34.875C191.359 33.7727 189.899 32.2159 188.876 30.2045C187.854 28.1818 187.342 25.8011 187.342 23.0625C187.342 20.3693 187.854 18.0057 188.876 15.9716C189.911 13.9261 191.354 12.3352 193.206 11.1989C195.058 10.0511 197.234 9.47727 199.734 9.47727C201.348 9.47727 202.871 9.73864 204.303 10.2614C205.746 10.7727 207.018 11.5682 208.121 12.6477C209.234 13.7273 210.109 15.1023 210.746 16.7727C211.382 18.4318 211.7 20.4091 211.7 22.7045V24.5966H190.24V20.4375H205.786C205.774 19.2557 205.518 18.2045 205.018 17.2841C204.518 16.3523 203.82 15.6193 202.922 15.0852C202.036 14.5511 201.001 14.2841 199.82 14.2841C198.558 14.2841 197.45 14.5909 196.496 15.2045C195.541 15.8068 194.797 16.6023 194.263 17.5909C193.74 18.5682 193.473 19.642 193.462 20.8125V24.4432C193.462 25.9659 193.74 27.2727 194.297 28.3636C194.854 29.4432 195.632 30.2727 196.632 30.8523C197.632 31.4205 198.803 31.7045 200.143 31.7045C201.041 31.7045 201.854 31.5795 202.581 31.3295C203.308 31.0682 203.939 30.6875 204.473 30.1875C205.007 29.6875 205.411 29.0682 205.683 28.3295L211.445 28.9773C211.081 30.5 210.388 31.8295 209.365 32.9659C208.354 34.0909 207.058 34.9659 205.479 35.5909C203.899 36.2045 202.092 36.5114 200.058 36.5114ZM224.455 36.5284C222.795 36.5284 221.301 36.233 219.972 35.642C218.653 35.0398 217.608 34.1534 216.835 32.983C216.074 31.8125 215.693 30.3693 215.693 28.6534C215.693 27.1761 215.966 25.9545 216.511 24.9886C217.057 24.0227 217.801 23.25 218.744 22.6705C219.688 22.0909 220.75 21.6534 221.932 21.358C223.125 21.0511 224.358 20.8295 225.631 20.6932C227.165 20.5341 228.409 20.392 229.364 20.267C230.318 20.1307 231.011 19.9261 231.443 19.6534C231.886 19.3693 232.108 18.9318 232.108 18.3409V18.2386C232.108 16.9545 231.727 15.9602 230.966 15.2557C230.205 14.5511 229.108 14.1989 227.676 14.1989C226.165 14.1989 224.966 14.5284 224.08 15.1875C223.205 15.8466 222.614 16.625 222.307 17.5227L216.545 16.7045C217 15.1136 217.75 13.7841 218.795 12.7159C219.841 11.6364 221.119 10.8295 222.631 10.2955C224.142 9.75 225.813 9.47727 227.642 9.47727C228.903 9.47727 230.159 9.625 231.409 9.92045C232.659 10.2159 233.801 10.7045 234.835 11.3864C235.869 12.0568 236.699 12.9716 237.324 14.1307C237.96 15.2898 238.278 16.7386 238.278 18.4773V36H232.347V32.4034H232.142C231.767 33.1307 231.239 33.8125 230.557 34.4489C229.886 35.0739 229.04 35.5795 228.017 35.9659C227.006 36.3409 225.818 36.5284 224.455 36.5284ZM226.057 31.9943C227.295 31.9943 228.369 31.75 229.278 31.2614C230.188 30.7614 230.886 30.1023 231.375 29.2841C231.875 28.4659 232.125 27.5739 232.125 26.608V23.5227C231.932 23.6818 231.602 23.8295 231.136 23.9659C230.682 24.1023 230.17 24.2216 229.602 24.3239C229.034 24.4261 228.472 24.517 227.915 24.5966C227.358 24.6761 226.875 24.7443 226.466 24.8011C225.545 24.9261 224.722 25.1307 223.994 25.4148C223.267 25.6989 222.693 26.0966 222.273 26.608C221.852 27.108 221.642 27.7557 221.642 28.5511C221.642 29.6875 222.057 30.5455 222.886 31.125C223.716 31.7045 224.773 31.9943 226.057 31.9943ZM250.108 27.7841L250.091 20.3352H251.08L260.489 9.81818H267.699L256.125 22.7045H254.847L250.108 27.7841ZM244.483 36V1.09091H250.653V36H244.483ZM260.915 36L252.392 24.0852L256.551 19.7386L268.295 36H260.915Z" fill="#4990E2"/>
</svg>
